# xmcd
#
# Track frame offsets:
#	150
#	21741
#	38367
#	58361
#	78394
#	92947
#	111305
#	127471
#
# Disc length: 1894 seconds
#
# Revision: 0
# Processed by: cddbd v1.5.1PL0 Copyright (c) Steve Scherf et al.
# Submitted via: audiograbber 1.83.01
#
DISCID=75076408
DTITLE=The BossHoss - Internashville Urban Hymns (Promo)
DYEAR=2005
DGENRE=Alternative Country
TTITLE0=Without Me
TTITLE1=Hey Ya!
TTITLE2=Hot In Here!
TTITLE3=Toxic
TTITLE4=A Little Less Conversation
TTITLE5=Hey Joe
TTITLE6=Unbelievable
TTITLE7=Loser
EXTD=
EXTT0=
EXTT1=
EXTT2=
EXTT3=
EXTT4=
EXTT5=
EXTT6=
EXTT7=
PLAYORDER=
